<mxfile host="65bd71144e">
    <diagram id="t35zvyUdN_U0zVuT8ImV" name="Page-1">
        <mxGraphModel dx="1160" dy="511" grid="1" gridSize="10" guides="1" tooltips="1" connect="1" arrows="1" fold="1" page="1" pageScale="1" pageWidth="850" pageHeight="1100" math="0" shadow="0">
            <root>
                <mxCell id="0"/>
                <mxCell id="1" parent="0"/>
                <mxCell id="11" value="&lt;font face=&quot;Lucida Console&quot;&gt;Анализ новостей в реальном времени (to be)&lt;/font&gt;" style="swimlane;html=1;childLayout=stackLayout;resizeParent=1;resizeParentMax=0;horizontal=0;startSize=20;horizontalStack=0;whiteSpace=wrap;" parent="1" vertex="1">
                    <mxGeometry x="50" y="50" width="840" height="470" as="geometry"/>
                </mxCell>
                <mxCell id="12" value="&lt;font face=&quot;Lucida Console&quot;&gt;Аналитик&lt;/font&gt;" style="swimlane;html=1;startSize=20;horizontal=0;" parent="11" vertex="1">
                    <mxGeometry x="20" width="820" height="240" as="geometry"/>
                </mxCell>
                <mxCell id="35" value="&lt;font style=&quot;font-size: 8px;&quot; face=&quot;Lucida Console&quot;&gt;Получено сообщение от ии-агента&lt;/font&gt;" style="points=[[0.145,0.145,0],[0.5,0,0],[0.855,0.145,0],[1,0.5,0],[0.855,0.855,0],[0.5,1,0],[0.145,0.855,0],[0,0.5,0]];shape=mxgraph.bpmn.event;html=1;verticalLabelPosition=bottom;labelBackgroundColor=#ffffff;verticalAlign=top;align=center;perimeter=ellipsePerimeter;outlineConnect=0;aspect=fixed;outline=standard;symbol=message;" parent="12" vertex="1">
                    <mxGeometry x="90" y="127.5" width="30" height="30" as="geometry"/>
                </mxCell>
                <mxCell id="43" value="&lt;font style=&quot;font-size: 8px;&quot; face=&quot;Lucida Console&quot;&gt;&lt;span style=&quot;text-wrap-mode: nowrap;&quot;&gt;Оценка сообщения от&lt;/span&gt;&lt;/font&gt;&lt;div&gt;&lt;font style=&quot;font-size: 8px;&quot; face=&quot;Lucida Console&quot;&gt;&lt;span style=&quot;text-wrap-mode: nowrap;&quot;&gt;информационной системы&lt;/span&gt;&lt;/font&gt;&lt;/div&gt;" style="points=[[0.25,0,0],[0.5,0,0],[0.75,0,0],[1,0.25,0],[1,0.5,0],[1,0.75,0],[0.75,1,0],[0.5,1,0],[0.25,1,0],[0,0.75,0],[0,0.5,0],[0,0.25,0]];shape=mxgraph.bpmn.task;whiteSpace=wrap;rectStyle=rounded;size=10;html=1;container=1;expand=0;collapsible=0;taskMarker=abstract;" parent="12" vertex="1">
                    <mxGeometry x="140" y="10" width="140" height="70" as="geometry"/>
                </mxCell>
                <mxCell id="44" value="" style="edgeStyle=elbowEdgeStyle;fontSize=12;html=1;endArrow=blockThin;endFill=1;entryX=0;entryY=0.5;entryDx=0;entryDy=0;entryPerimeter=0;exitX=1;exitY=0.5;exitDx=0;exitDy=0;exitPerimeter=0;" parent="12" source="35" target="43" edge="1">
                    <mxGeometry width="160" relative="1" as="geometry">
                        <mxPoint x="40" y="100" as="sourcePoint"/>
                        <mxPoint x="200" y="100" as="targetPoint"/>
                    </mxGeometry>
                </mxCell>
                <mxCell id="46" value="" style="edgeStyle=elbowEdgeStyle;fontSize=12;html=1;endArrow=blockThin;endFill=1;entryX=0;entryY=0.5;entryDx=0;entryDy=0;entryPerimeter=0;exitX=1;exitY=0.5;exitDx=0;exitDy=0;exitPerimeter=0;" parent="12" source="43" target="47" edge="1">
                    <mxGeometry width="160" relative="1" as="geometry">
                        <mxPoint x="230" y="190" as="sourcePoint"/>
                        <mxPoint x="320" y="120" as="targetPoint"/>
                    </mxGeometry>
                </mxCell>
                <mxCell id="47" value="&lt;font style=&quot;font-size: 8px;&quot;&gt;Новость требует немедленной реакции&amp;nbsp;&lt;/font&gt;" style="points=[[0.25,0.25,0],[0.5,0,0],[0.75,0.25,0],[1,0.5,0],[0.75,0.75,0],[0.5,1,0],[0.25,0.75,0],[0,0.5,0]];shape=mxgraph.bpmn.gateway2;html=1;verticalLabelPosition=bottom;labelBackgroundColor=#ffffff;verticalAlign=top;align=center;perimeter=rhombusPerimeter;outlineConnect=0;outline=none;symbol=none;gwType=exclusive;" parent="12" vertex="1">
                    <mxGeometry x="320" y="97.5" width="50" height="45" as="geometry"/>
                </mxCell>
                <mxCell id="51" value="&lt;font style=&quot;font-size: 8px;&quot; face=&quot;Lucida Console&quot;&gt;Формирование сообщение и отправка в отдел трейдеров&lt;/font&gt;" style="points=[[0.25,0,0],[0.5,0,0],[0.75,0,0],[1,0.25,0],[1,0.5,0],[1,0.75,0],[0.75,1,0],[0.5,1,0],[0.25,1,0],[0,0.75,0],[0,0.5,0],[0,0.25,0]];shape=mxgraph.bpmn.task;whiteSpace=wrap;rectStyle=rounded;size=10;html=1;container=1;expand=0;collapsible=0;taskMarker=abstract;" parent="12" vertex="1">
                    <mxGeometry x="510" y="10" width="140" height="80" as="geometry"/>
                </mxCell>
                <mxCell id="56" value="" style="edgeStyle=elbowEdgeStyle;fontSize=12;html=1;endArrow=blockThin;endFill=1;entryX=0;entryY=0.5;entryDx=0;entryDy=0;entryPerimeter=0;exitX=1;exitY=0.5;exitDx=0;exitDy=0;exitPerimeter=0;" parent="12" source="47" target="51" edge="1">
                    <mxGeometry width="160" relative="1" as="geometry">
                        <mxPoint x="560" y="240" as="sourcePoint"/>
                        <mxPoint x="600" y="140" as="targetPoint"/>
                    </mxGeometry>
                </mxCell>
                <mxCell id="58" value="&lt;font style=&quot;font-size: 8px;&quot; face=&quot;Lucida Console&quot;&gt;Да&lt;/font&gt;" style="text;html=1;align=center;verticalAlign=middle;resizable=0;points=[];autosize=1;strokeColor=none;fillColor=none;" parent="12" vertex="1">
                    <mxGeometry x="380" y="85" width="30" height="30" as="geometry"/>
                </mxCell>
                <mxCell id="59" value="&lt;font style=&quot;font-size: 8px;&quot; face=&quot;Lucida Console&quot;&gt;Нет&lt;/font&gt;" style="text;html=1;align=center;verticalAlign=middle;resizable=0;points=[];autosize=1;strokeColor=none;fillColor=none;" parent="12" vertex="1">
                    <mxGeometry x="530" y="115" width="40" height="30" as="geometry"/>
                </mxCell>
                <mxCell id="83" value="" style="edgeStyle=elbowEdgeStyle;fontSize=12;html=1;endArrow=blockThin;endFill=1;exitX=0.5;exitY=1;exitDx=0;exitDy=0;exitPerimeter=0;entryX=0;entryY=0.5;entryDx=0;entryDy=0;entryPerimeter=0;" parent="12" source="47" target="85" edge="1">
                    <mxGeometry width="160" relative="1" as="geometry">
                        <mxPoint x="530" y="160" as="sourcePoint"/>
                        <mxPoint x="760" y="190" as="targetPoint"/>
                        <Array as="points">
                            <mxPoint x="700" y="130"/>
                        </Array>
                    </mxGeometry>
                </mxCell>
                <mxCell id="85" value="&lt;span style=&quot;color: rgb(0, 0, 0);&quot;&gt;&lt;font style=&quot;font-size: 8px;&quot; face=&quot;Lucida Console&quot;&gt;Задача завершина&lt;/font&gt;&lt;/span&gt;" style="points=[[0.145,0.145,0],[0.5,0,0],[0.855,0.145,0],[1,0.5,0],[0.855,0.855,0],[0.5,1,0],[0.145,0.855,0],[0,0.5,0]];shape=mxgraph.bpmn.event;html=1;verticalLabelPosition=bottom;labelBackgroundColor=#ffffff;verticalAlign=top;align=center;perimeter=ellipsePerimeter;outlineConnect=0;aspect=fixed;outline=end;symbol=terminate2;" parent="12" vertex="1">
                    <mxGeometry x="740" y="97.5" width="30" height="30" as="geometry"/>
                </mxCell>
                <mxCell id="86" value="" style="edgeStyle=elbowEdgeStyle;fontSize=12;html=1;endArrow=blockThin;endFill=1;exitX=1;exitY=0.5;exitDx=0;exitDy=0;exitPerimeter=0;entryX=0;entryY=0.5;entryDx=0;entryDy=0;entryPerimeter=0;" parent="12" source="51" target="85" edge="1">
                    <mxGeometry width="160" relative="1" as="geometry">
                        <mxPoint x="730" y="181" as="sourcePoint"/>
                        <mxPoint x="860" y="140" as="targetPoint"/>
                    </mxGeometry>
                </mxCell>
                <mxCell id="13" value="&lt;font face=&quot;Lucida Console&quot;&gt;ИИ-агент&lt;/font&gt;" style="swimlane;html=1;startSize=20;horizontal=0;" parent="11" vertex="1">
                    <mxGeometry x="20" y="240" width="820" height="230" as="geometry"/>
                </mxCell>
                <mxCell id="30" value="&lt;font face=&quot;Lucida Console&quot;&gt;&lt;span style=&quot;font-size: 8px;&quot;&gt;Получена новая новость&lt;/span&gt;&lt;/font&gt;" style="points=[[0.145,0.145,0],[0.5,0,0],[0.855,0.145,0],[1,0.5,0],[0.855,0.855,0],[0.5,1,0],[0.145,0.855,0],[0,0.5,0]];shape=mxgraph.bpmn.event;html=1;verticalLabelPosition=bottom;labelBackgroundColor=#ffffff;verticalAlign=top;align=center;perimeter=ellipsePerimeter;outlineConnect=0;aspect=fixed;outline=standard;symbol=message;" parent="13" vertex="1">
                    <mxGeometry x="100" y="40" width="30" height="30" as="geometry"/>
                </mxCell>
                <mxCell id="21" value="&lt;font face=&quot;Lucida Console&quot;&gt;&lt;span style=&quot;font-size: 8px; text-wrap-mode: nowrap;&quot;&gt;Анализ выполнен.&amp;nbsp;&lt;/span&gt;&lt;/font&gt;&lt;div&gt;&lt;font face=&quot;Lucida Console&quot;&gt;&lt;span style=&quot;font-size: 8px; text-wrap-mode: nowrap;&quot;&gt;Формирование сообщения с&lt;/span&gt;&lt;/font&gt;&lt;/div&gt;&lt;div&gt;&lt;font face=&quot;Lucida Console&quot;&gt;&lt;span style=&quot;font-size: 8px; text-wrap-mode: nowrap;&quot;&gt;рекомендацией или прогнозом&lt;/span&gt;&lt;/font&gt;&lt;/div&gt;" style="points=[[0.25,0,0],[0.5,0,0],[0.75,0,0],[1,0.25,0],[1,0.5,0],[1,0.75,0],[0.75,1,0],[0.5,1,0],[0.25,1,0],[0,0.75,0],[0,0.5,0],[0,0.25,0]];shape=mxgraph.bpmn.task;whiteSpace=wrap;rectStyle=rounded;size=10;html=1;container=1;expand=0;collapsible=0;taskMarker=abstract;" parent="13" vertex="1">
                    <mxGeometry x="390" y="30" width="140" height="70" as="geometry"/>
                </mxCell>
                <mxCell id="27" value="&lt;font face=&quot;Lucida Console&quot;&gt;&lt;span style=&quot;font-size: 8px; text-wrap-mode: nowrap;&quot;&gt;Анализ вляния новости&amp;nbsp;&lt;/span&gt;&lt;/font&gt;&lt;div&gt;&lt;font face=&quot;Lucida Console&quot;&gt;&lt;span style=&quot;font-size: 8px; text-wrap-mode: nowrap;&quot;&gt;на конъюктуру рынка,&lt;/span&gt;&lt;/font&gt;&lt;/div&gt;&lt;div&gt;&lt;font face=&quot;Lucida Console&quot;&gt;&lt;span style=&quot;font-size: 8px; text-wrap-mode: nowrap;&quot;&gt;отдельные активы и активы&lt;/span&gt;&lt;/font&gt;&lt;/div&gt;&lt;div&gt;&lt;font face=&quot;Lucida Console&quot;&gt;&lt;span style=&quot;font-size: 8px; text-wrap-mode: nowrap;&quot;&gt;в портфелях&lt;/span&gt;&lt;/font&gt;&lt;/div&gt;" style="points=[[0.25,0,0],[0.5,0,0],[0.75,0,0],[1,0.25,0],[1,0.5,0],[1,0.75,0],[0.75,1,0],[0.5,1,0],[0.25,1,0],[0,0.75,0],[0,0.5,0],[0,0.25,0]];shape=mxgraph.bpmn.task;whiteSpace=wrap;rectStyle=rounded;size=10;html=1;container=1;expand=0;collapsible=0;taskMarker=abstract;" parent="13" vertex="1">
                    <mxGeometry x="219" y="110" width="136" height="80" as="geometry"/>
                </mxCell>
                <mxCell id="32" value="" style="edgeStyle=elbowEdgeStyle;fontSize=12;html=1;endArrow=blockThin;endFill=1;entryX=0;entryY=0.5;entryDx=0;entryDy=0;entryPerimeter=0;" parent="13" source="30" target="27" edge="1">
                    <mxGeometry width="160" relative="1" as="geometry">
                        <mxPoint x="200" y="160" as="sourcePoint"/>
                        <mxPoint x="360" y="160" as="targetPoint"/>
                    </mxGeometry>
                </mxCell>
                <mxCell id="34" value="" style="edgeStyle=elbowEdgeStyle;fontSize=12;html=1;endArrow=blockThin;endFill=1;entryX=0;entryY=0.5;entryDx=0;entryDy=0;entryPerimeter=0;exitX=1;exitY=0.5;exitDx=0;exitDy=0;exitPerimeter=0;" parent="13" source="27" target="21" edge="1">
                    <mxGeometry width="160" relative="1" as="geometry">
                        <mxPoint x="360" y="70" as="sourcePoint"/>
                        <mxPoint x="356" y="130" as="targetPoint"/>
                    </mxGeometry>
                </mxCell>
                <mxCell id="87" value="&lt;font style=&quot;font-size: 8px;&quot; face=&quot;Lucida Console&quot;&gt;Задача завершина&lt;/font&gt;" style="points=[[0.145,0.145,0],[0.5,0,0],[0.855,0.145,0],[1,0.5,0],[0.855,0.855,0],[0.5,1,0],[0.145,0.855,0],[0,0.5,0]];shape=mxgraph.bpmn.event;html=1;verticalLabelPosition=bottom;labelBackgroundColor=#ffffff;verticalAlign=top;align=center;perimeter=ellipsePerimeter;outlineConnect=0;aspect=fixed;outline=end;symbol=terminate2;" parent="13" vertex="1">
                    <mxGeometry x="590" y="140" width="30" height="30" as="geometry"/>
                </mxCell>
                <mxCell id="89" value="" style="edgeStyle=elbowEdgeStyle;fontSize=12;html=1;endArrow=blockThin;endFill=1;entryX=0;entryY=0.5;entryDx=0;entryDy=0;entryPerimeter=0;exitX=1;exitY=0.5;exitDx=0;exitDy=0;exitPerimeter=0;" parent="13" source="21" target="87" edge="1">
                    <mxGeometry width="160" relative="1" as="geometry">
                        <mxPoint x="560" y="60" as="sourcePoint"/>
                        <mxPoint x="555" y="120" as="targetPoint"/>
                    </mxGeometry>
                </mxCell>
                <mxCell id="88" value="" style="dashed=1;dashPattern=8 4;endArrow=blockThin;endFill=1;startArrow=oval;startFill=0;endSize=6;startSize=4;html=1;exitX=0.5;exitY=0;exitDx=0;exitDy=0;exitPerimeter=0;entryX=0.5;entryY=1;entryDx=0;entryDy=0;entryPerimeter=0;" parent="11" source="21" target="35" edge="1">
                    <mxGeometry width="160" relative="1" as="geometry">
                        <mxPoint x="270" y="300" as="sourcePoint"/>
                        <mxPoint x="110" y="170" as="targetPoint"/>
                        <Array as="points">
                            <mxPoint x="480" y="210"/>
                            <mxPoint x="310" y="210"/>
                            <mxPoint x="125" y="210"/>
                        </Array>
                    </mxGeometry>
                </mxCell>
                <mxCell id="25" value="&lt;font face=&quot;Lucida Console&quot;&gt;&lt;span style=&quot;font-size: 8px;&quot;&gt;Источники новостей RSS&lt;/span&gt;&lt;/font&gt;" style="shape=datastore;html=1;labelPosition=center;verticalLabelPosition=bottom;align=center;verticalAlign=top;" parent="1" vertex="1">
                    <mxGeometry x="80" y="550" width="31" height="60" as="geometry"/>
                </mxCell>
                <mxCell id="28" value="" style="edgeStyle=elbowEdgeStyle;fontSize=12;html=1;endFill=0;startFill=0;endSize=6;startSize=6;dashed=1;dashPattern=1 4;endArrow=none;startArrow=none;entryX=0.5;entryY=1;entryDx=0;entryDy=0;entryPerimeter=0;exitX=0.5;exitY=0;exitDx=0;exitDy=0;" parent="1" source="25" target="30" edge="1">
                    <mxGeometry width="160" relative="1" as="geometry">
                        <mxPoint x="190" y="450" as="sourcePoint"/>
                        <mxPoint x="175" y="390" as="targetPoint"/>
                    </mxGeometry>
                </mxCell>
            </root>
        </mxGraphModel>
    </diagram>
</mxfile>